#tb 0: 1/30
#media_type 0: video
#codec_id 0: rawvideo
#dimensions 0: 320x240
#sar 0: 1/1
0,          0,          0,        1,   115200, 0x2599a172
0,          1,          1,        1,   115200, 0x08a8c08d
0,          2,          2,        1,   115200, 0xf586aa9e
0,          3,          3,        1,   115200, 0x5295c51e
0,          4,          4,        1,   115200, 0x06b3d0c4
0,          5,          5,        1,   115200, 0xed28999a
0,          6,          6,        1,   115200, 0x566e7b4b
0,          7,          7,        1,   115200, 0x146f8309
0,          8,          8,        1,   115200, 0x9f57cbbc
0,          9,          9,        1,   115200, 0xc9d6c278
0,         10,         10,        1,   115200, 0xaf76c2eb
0,         11,         11,        1,   115200, 0xf83854c7
0,         12,         12,        1,   115200, 0x73a5c2c3
0,         13,         13,        1,   115200, 0x91eb991f
0,         14,         14,        1,   115200, 0x886a8c3b
0,         15,         15,        1,   115200, 0x469ca5a8
0,         16,         16,        1,   115200, 0x4666791d
0,         17,         17,        1,   115200, 0xe010cab0
0,         18,         18,        1,   115200, 0x1130ab51
0,         19,         19,        1,   115200, 0x9fb4cca2
0,         20,         20,        1,   115200, 0xd6e0b861
0,         21,         21,        1,   115200, 0xd7289bea
0,         22,         22,        1,   115200, 0x71bb6079
0,         23,         23,        1,   115200, 0xf43ba8b6
0,         24,         24,        1,   115200, 0xfb02a209
0,         25,         25,        1,   115200, 0x45f2e2ce
0,         26,         26,        1,   115200, 0x9b28a90a
0,         27,         27,        1,   115200, 0x037ca263
0,         28,         28,        1,   115200, 0x1985baba
0,         29,         29,        1,   115200, 0x05a5a7f7
